# xmcd
#
# Track frame offsets:
#	150
#	13662
#	27837
#	43488
#	69225
#	72499
#	90236
#	102815
#	121325
#	134361
#	148329
#	164078
#	176304
#	181246
#	192624
#	201584
#	214892
#
# Disc length: 2949 seconds
#
# Revision: 0
# Processed by: cddbd v1.5.2PL0 Copyright (c) Steve Scherf et al.
# Submitted via: EZCDAudioConverter 1.3.4.1
#
DISCID=050b8311
DTITLE=Kratherion - Sermón Del Heresiarca
DYEAR=2011
DGENRE=Black Metal
TTITLE0=Solve (Et) Coagula
TTITLE1=Serpentherion (Necrouroboros)
TTITLE2=Alma Envenenada
TTITLE3=Ritual De Iniciación (Hain-Kloketen)
TTITLE4=Intro
TTITLE5=Tirano Constrictor
TTITLE6=Coffin Chip
TTITLE7=Vade Retro Jehová
TTITLE8=Solve Coagula (Reh. Versión 2003)
TTITLE9=Serpentherion (Reh. Versión 2003)
TTITLE10=Alma Envenada (Reh. Versión 2003)
TTITLE11=La muerte en el Mundo (Reh. Versión 1999)
TTITLE12=Esperma Negra (Reh. Versión 1999)
TTITLE13=Fixus Carica
TTITLE14=Hoy Es Un Gran Día Para Suicidarse
TTITLE15=In League With Satan (Tribute To Venom)
TTITLE16=Incandescente Pira De Muerte Final
EXTD=
EXTT0=
EXTT1=
EXTT2=
EXTT3=
EXTT4=
EXTT5=
EXTT6=
EXTT7=
EXTT8=
EXTT9=
EXTT10=
EXTT11=
EXTT12=
EXTT13=
EXTT14=
EXTT15=
EXTT16=
PLAYORDER=
